# xmcd
#
# Track frame offsets:
#	150
#	881
#	16510
#	36212
#	52247
#	69252
#	80422
#	94870
#	110800
#	125520
#	139228
#	155448
#	172396
#	183747
#	199251
#	210468
#	226303
#	240206
#	259459
#	277184
#	291582
#	307456
#
# Disc length: 4385 seconds
#
# Revision: 0
# Processed by: cddbd v1.5.2PL0 Copyright (c) Steve Scherf et al.
# Submitted via: audiograbber 1.83.01
#
DISCID=4d111f16
DTITLE=Country Hotdisc - Country Hotdisc 098
DYEAR=2007
DGENRE=
TTITLE0=Intro  - Intro 
TTITLE1=One More Night  - Hal Ketchum
TTITLE2=A Country Boy Can Survive  - Hank Williams Jr
TTITLE3=A Mile Out Of Memphis - Rob Crosby With Carl Perkins
TTITLE4=Down And Dirty  - Jackie Barnett
TTITLE5=49´ Ford - Billy Don Burns
TTITLE6=Earth Angel  - Narvel Felts
TTITLE7=I Wonder Who´s Missing You Now  - Ray Pillow
TTITLE8=Ask The Man Upstairs  - Donny Richmond
TTITLE9=Lucky In Your Tears - Elisabeth Ames and The Countrypolitans
TTITLE10=Lie To Me Darlin  - Kacey Jones
TTITLE11=Momma Knows  - Ray William Roldan
TTITLE12=What Goes Around Comes Around  - Van Preston
TTITLE13=Built For Bluejeans  - Tyler Dean
TTITLE14=Country Boogie  - Michelle Rae 
TTITLE15=If That´s So Wrong  - Audry Kelly
TTITLE16=That Girl  - Travis Ledoyt
TTITLE17=Blame It On Your Man  - Karin Wright
TTITLE18=Watching You  - Rodney Atkin
TTITLE19=Come On Rain - Steve Holy
TTITLE20=White Line Fever  - Kenny Comb
TTITLE21=Lonely Reciver  - Elisabeth Ames and The Countrypolitans
EXTD=
EXTT0=
EXTT1=
EXTT2=
EXTT3=
EXTT4=
EXTT5=
EXTT6=
EXTT7=
EXTT8=
EXTT9=
EXTT10=
EXTT11=
EXTT12=
EXTT13=
EXTT14=
EXTT15=
EXTT16=
EXTT17=
EXTT18=
EXTT19=
EXTT20=
EXTT21=
PLAYORDER=
